<svg width="16" height="16" fill="none" xmlns="http://www.w3.org/2000/svg"><path d="M8 .459a7.543 7.543 0 0 0-6.31 11.675l-.972 3.29 3.417-.947A7.543 7.543 0 0 0 15.543 8 7.543 7.543 0 0 0 8 .459Z" fill="#fff"/><path d="M12.145 10.073a.274.274 0 0 0-.159-.227c-.608-.28-1.22-.559-1.828-.838a.172.172 0 0 0-.202.043l-.826.932a.226.226 0 0 1-.257.062 5.865 5.865 0 0 1-1.59-.978 5.923 5.923 0 0 1-1.337-1.66c.114-.078.428-.311.568-.743 0-.003.003-.006.003-.006a1.258 1.258 0 0 0-.028-.82c-.165-.437-.494-1.284-.621-1.415a.548.548 0 0 0-.388-.18c-.043-.003-.09-.003-.14-.003a2.595 2.595 0 0 0-.363.01c-.264.037-.456.213-.577.362-.146.177-.32.441-.435.789l-.028.09a2.22 2.22 0 0 0 .05 1.347c.143.407.35.891.664 1.403.531.872 1.108 1.413 1.5 1.77.44.406.987.906 1.853 1.322.8.385 1.527.528 2.014.587.199.018.565.021.984-.137.193-.074.354-.165.484-.26a1.56 1.56 0 0 0 .65-1.031v-.01a1.86 1.86 0 0 0 .009-.41Z" fill="#00A76B"/></svg>